<svg width="40" height="40" viewBox="0 0 40 40" fill="none" xmlns="http://www.w3.org/2000/svg">
<path fill-rule="evenodd" clip-rule="evenodd" d="M35 20C35 28.2843 28.2843 35 20 35C11.7157 35 5 28.2843 5 20C5 11.7157 11.7157 5 20 5C28.2843 5 35 11.7157 35 20ZM20 30.3333C18.8954 30.3333 18 29.4379 18 28.3333V22H11.6667C10.5621 22 9.66668 21.1046 9.66668 20C9.66668 18.8954 10.5621 18 11.6667 18H18V11.6667C18 10.5621 18.8954 9.66667 20 9.66667C21.1046 9.66667 22 10.5621 22 11.6667V18H28.3333C29.4379 18 30.3333 18.8954 30.3333 20C30.3333 21.1046 29.4379 22 28.3333 22H22V28.3333C22 29.4379 21.1046 30.3333 20 30.3333Z" fill="#FBFBFB"/>
</svg>
