<svg width="32" height="32" viewBox="0 0 32 32" fill="none" xmlns="http://www.w3.org/2000/svg">
<path d="M22.6667 15C23.219 15 23.6667 15.4477 23.6667 16C23.6667 16.5523 23.219 17 22.6667 17V15ZM4.00002 17C3.44774 17 3.00002 16.5523 3.00002 16C3.00002 15.4477 3.44774 15 4.00002 15V17ZM22.6667 17H4.00002V15H22.6667V17Z" fill="#12151F"/>
<path d="M29.0485 15.7965L21.265 10.2369C20.7355 9.85867 20 10.2372 20 10.8879V21.1121C20 21.7628 20.7355 22.1413 21.265 21.7631L29.0485 16.2034C29.1881 16.1037 29.1881 15.8963 29.0485 15.7965Z" fill="#12151F"/>
</svg>
