<svg width="40" height="40" viewBox="0 0 40 40" fill="none" xmlns="http://www.w3.org/2000/svg">
<path d="M17.1788 12.0331C18.2489 9.3653 18.784 8.03139 19.6533 7.84652C19.8818 7.79791 20.1181 7.79791 20.3467 7.84652C21.216 8.03139 21.751 9.3653 22.8211 12.0331C23.4297 13.5502 23.734 14.3088 24.3033 14.8248C24.463 14.9695 24.6364 15.0984 24.821 15.2096C25.479 15.6062 26.3005 15.6798 27.9435 15.8269C30.7248 16.076 32.1154 16.2006 32.5401 16.9935C32.628 17.1577 32.6878 17.3355 32.717 17.5195C32.8578 18.4079 31.8354 19.338 29.7908 21.1982L29.223 21.7147C28.2671 22.5844 27.7891 23.0192 27.5127 23.5619C27.3468 23.8875 27.2357 24.238 27.1836 24.5996C27.0967 25.2024 27.2367 25.8333 27.5166 27.0949L27.6166 27.5457C28.1186 29.8082 28.3696 30.9395 28.0563 31.4956C27.7748 31.9951 27.2564 32.3148 26.6837 32.3422C26.0462 32.3726 25.1479 31.6406 23.3513 30.1766C22.1676 29.2121 21.5757 28.7298 20.9187 28.5414C20.3183 28.3693 19.6816 28.3693 19.0812 28.5414C18.4242 28.7298 17.8323 29.2121 16.6487 30.1766C14.852 31.6406 13.9537 32.3726 13.3162 32.3422C12.7435 32.3148 12.2251 31.9951 11.9437 31.4956C11.6303 30.9395 11.8813 29.8082 12.3833 27.5457L12.4833 27.0949C12.7633 25.8333 12.9032 25.2024 12.8164 24.5996C12.7643 24.238 12.6531 23.8875 12.4872 23.5619C12.2108 23.0192 11.7328 22.5844 10.7769 21.7147L10.2091 21.1982C8.16449 19.338 7.14217 18.4079 7.28295 17.5195C7.31211 17.3355 7.37191 17.1577 7.45986 16.9935C7.88453 16.2006 9.27516 16.076 12.0564 15.8269C13.6994 15.6798 14.5209 15.6062 15.179 15.2096C15.3635 15.0984 15.5369 14.9695 15.6966 14.8248C16.2659 14.3088 16.5702 13.5502 17.1788 12.0331Z" fill="#E0E0E0" stroke="#E0E0E0" stroke-width="2"/>
</svg>
